<svg t="1770555864869" class="icon" viewBox="0 0 1075 1024" version="1.1" xmlns="http://www.w3.org/2000/svg" p-id="2264" width="200" height="200"><path d="M170.8544 118.5792H313.344a10.24 10.24 0 0 0 10.24-10.24V61.44a10.24 10.24 0 0 0-10.24-10.24h-209.92a10.24 10.24 0 0 0-10.24 10.24v212.224c0 5.632 4.608 10.24 10.24 10.24h46.9504a10.24 10.24 0 0 0 10.24-10.24V128.8192c0-5.632 4.608-10.24 10.24-10.24zM772.864 61.44v46.8992c0 5.632 4.608 10.24 10.24 10.24h145.408c5.632 0 10.24 4.608 10.24 10.24v144.8448c0 5.632 4.608 10.24 10.24 10.24h46.9504a10.24 10.24 0 0 0 10.24-10.24V61.44a10.24 10.24 0 0 0-10.24-10.24h-212.8384a10.24 10.24 0 0 0-10.24 10.24zM150.3744 740.096H103.424a10.24 10.24 0 0 0-10.24 10.24V962.56c0 5.632 4.608 10.24 10.24 10.24h209.92a10.24 10.24 0 0 0 10.24-10.24v-49.2032a10.24 10.24 0 0 0-10.24-10.24H170.8544a10.24 10.24 0 0 1-10.24-10.24v-142.5408a10.24 10.24 0 0 0-10.24-10.24z m787.8144 163.0208h-155.648a10.24 10.24 0 0 0-10.24 10.24v49.2032c0 5.632 4.608 10.24 10.24 10.24h212.224a10.24 10.24 0 0 0 10.24-10.24v-212.224a10.24 10.24 0 0 0-10.24-10.24h-46.8992a10.24 10.24 0 0 0-10.24 10.24v152.4736c0 0.1536 0.1024 0.3072 0.256 0.3072h0.3072zM543.488 352.3072l105.4208 65.3824a22.528 22.528 0 0 1 10.5472 19.4048v130.7136a22.528 22.528 0 0 1-10.5472 19.4048l-105.4208 65.3312a21.0944 21.0944 0 0 1-21.0944 0l-106.496-65.3312a22.528 22.528 0 0 1-10.496-19.456V437.1456a22.528 22.528 0 0 1 10.5472-19.456l106.496-65.3312a21.0944 21.0944 0 0 1 21.0432 0z m-10.3424 45.9776L447.7952 450.7648v105.472l85.3504 52.0192 84.3264-52.48V450.3552L533.1456 398.336z m0 59.4432a44.6976 44.6976 0 1 1-42.1376 44.6976 43.4176 43.4176 0 0 1 42.1376-44.6976z" p-id="2265"></path><path d="M827.5968 840.9088c7.4752 7.4752 14.3872 9.7792 26.5216 9.7792a36.6592 36.6592 0 0 0 35.6864-35.6864 30.5664 30.5664 0 0 0-9.7792-24.2176l-76.5952-79.5136a340.992 340.992 0 0 0 67.3792-203.8784c0-184.8832-151.5008-335.8208-335.8208-335.8208S199.168 322.56 199.168 507.392s151.552 335.8208 335.872 335.8208a337.2032 337.2032 0 0 0 220.5696-81.8176l71.9872 79.5136z m-294.912-67.4304c-148.5824 0-263.7824-115.2-263.7824-263.7824 0-148.6336 115.2-263.8336 263.7824-263.8336 148.6336 0 263.8336 115.2 263.8336 263.8336a263.0144 263.0144 0 0 1-263.8336 263.7824z" p-id="2266"></path></svg>